<svg width="811" height="248" viewBox="0 0 811 248" fill="none" xmlns="http://www.w3.org/2000/svg">
<g clip-path="url(#clip0_3_39)">
<path d="M7.53999 137.22C14.39 133.59 21.46 130.61 27.82 126.12C34.18 121.63 41.06 117.28 47.38 112.43C59.89 102.81 71.25 91.73 81.16 79.46C90.66 67.69 98.58 54.79 103.76 40.54C107.49 30.26 114.22 11.24 103.28 3.05001C92.34 -5.13999 77.77 4.38001 71.55 13.58C62.28 27.3 53.86 41.11 47.4 56.41C41.01 71.55 36.86 87.28 34.59 103.56C32.69 117.23 28.04 134.15 33.81 147.43C36.75 154.18 43.86 157.63 51.07 156.61C58.28 155.59 64.83 149.53 69.64 144.05C74.99 137.95 79.68 131.12 83.86 124.19C86.09 120.48 88.28 116.68 90.06 112.73C90.53 111.69 90.89 110.61 91.35 109.57C91.49 109.25 91.73 108.85 91.82 108.52C92.38 106.55 93.44 108.17 90.87 108.58L87.02 108.08C85.17 106.91 85.44 104.89 85.2 107.92C85.11 109.05 84.96 110.17 84.82 111.29C84.44 114.34 84.41 117.34 84.3 120.41C84.03 127.98 82.21 135.36 81 142.82C78.53 158.06 76.22 173.1 72.29 188.05C68.36 203 63.51 216.8 55 229.26C53.19 231.9 51.07 234.76 48.06 236.08C43.24 238.21 40.29 234.82 40.31 230.05C40.34 222.88 43.26 215.02 45.94 208.45C51.67 194.42 61.29 182.18 71.69 171.31C82.09 160.44 94.94 151.11 106.11 140.49C126.82 120.81 143.93 97.13 155.83 71.14C161.81 58.1 167.44 43.59 165.67 28.96C164.26 17.32 153.2 5.01001 140.92 12.56C135.51 15.89 132.72 22.12 130.27 27.69C127.23 34.61 124.51 41.67 122.08 48.83C117.05 63.64 112.24 79.05 110.03 94.57C108.02 108.68 109.11 123.11 113.81 136.64C118.83 151.09 132.76 148.77 144.23 143.93C156.54 138.74 167.84 130.63 177 120.93C184.42 113.07 197.03 99.19 190.42 87.6C187.33 82.18 180.84 80.61 175.28 82.86C169.3 85.29 165.57 91.54 162.55 96.93C156.66 107.45 153.93 120.86 161.82 131.14C169.43 141.05 182.7 141.28 192.27 134.11C203.33 125.82 208.78 113.15 212.43 100.19C213 98.18 213.42 96.23 213.78 94.18C213.94 93.25 214.11 92.33 214.31 91.41C214.51 90.49 215.51 88.46 214.11 90.21L210.57 91.67L210.75 91.69L206.43 89.21C206.77 89.69 205.34 93.47 205.11 94.46C204.26 98.19 203.83 102.07 203.36 105.86C202.32 114.31 201.94 122.8 202.11 131.32C202.24 137.89 211.43 137.59 212.11 131.32C213.75 116.31 221.61 100.31 234.04 91.28C234.73 90.78 237.37 89.08 237.71 89.29C237.45 89.14 237.79 89.88 237.93 90.33C238.62 92.48 237.58 95.85 237.12 97.97C235.98 103.21 234.48 108.4 234.25 113.79C233.95 120.45 236.29 126.51 241.69 130.54C247.4 134.8 255.58 134.2 260.98 129.57C267.16 124.27 270.52 115.17 273.63 107.93C275.39 103.84 277.12 99.75 279.03 95.73C280.06 93.57 281.22 91.48 282.18 89.29C282.83 87.82 285.15 84.65 282.38 86.64L275.54 84.85C275.1 83.43 274.9 83.62 274.97 85.43C274.72 86.67 274.51 87.92 274.34 89.18C274.09 90.87 273.89 92.57 273.74 94.27C273.34 98.91 273.46 103.56 273.43 108.21C273.38 115.63 271.36 122.54 270.84 129.86H280.84C281.21 123.3 284.02 115.32 286.96 109.52C290.54 102.44 296.08 94.97 302.29 89.95C304.67 88.03 309.41 85.6 311.57 89.1C312.86 91.18 311.86 95.18 311.51 97.41C310.88 101.38 310.12 105.33 309.77 109.35C308.96 118.86 310.84 130.22 320.96 133.94C327.9 136.49 334.17 134.47 340.5 131.35C348.1 127.6 354.91 123.01 360.49 116.59C364.69 111.75 357.65 104.65 353.42 109.52C348.73 114.91 343.28 118.64 336.97 121.94C332.89 124.07 327.31 127.03 322.9 123.84C317.65 120.04 319.51 109.86 320.39 104.49C321.67 96.58 324.38 86.47 317.21 80.54C305.59 70.93 293.13 84.07 286.22 92.66C277.98 102.91 271.6 116.52 270.84 129.87C270.47 136.32 280.39 136.25 280.84 129.87C281.09 126.33 282.16 122.83 282.68 119.32C283.35 114.74 283.44 110.16 283.44 105.54C283.44 100.32 283.47 95.13 284.28 89.97C284.84 86.38 285.69 83.26 284.19 79.81C283.18 77.48 279.35 76.58 277.35 78.02C274.7 79.93 274.23 82.7 272.96 85.55C270.89 90.21 268.51 94.74 266.48 99.43C264.45 104.12 262.6 108.67 260.26 113.1C258.38 116.67 256.27 122.04 252.03 123.21C242.96 125.72 244.12 112.71 245.14 107.76C246.16 102.81 247.84 97.55 247.97 92.29C248.1 87.03 246.17 81.33 240.53 79.8C233.4 77.87 227.02 83.76 222.39 88.34C210.74 99.88 203.87 115.13 202.11 131.34H212.11C211.89 119.96 212.14 107.87 214.84 96.76C215.62 93.54 217 90.17 216.22 86.8C215.5 83.66 212.64 80.9 209.24 81.86C204 83.33 204.36 91.57 203.25 95.83C200.77 105.37 197.32 115.48 190.28 122.66C184.41 128.65 174.61 132.9 169.03 124.11C163.95 116.12 168.43 106.24 172.89 99.11C174.21 97 180.56 87.51 182.24 94.02C183.32 98.21 177.57 104.66 175.24 107.67C169.25 115.44 161.81 122.18 153.62 127.55C149.85 130.02 145.9 132.27 141.8 134.14C138.06 135.85 132.36 138.59 128.16 138.09C123.21 137.5 122.83 131.76 121.84 127.88C120.54 122.78 119.36 117.79 119.05 112.5C118.4 101.16 120.6 90 123.49 79.1C126.38 68.2 129.49 57.6 133.25 47.09C135.09 41.95 137.06 36.87 139.28 31.88C140.85 28.34 142.99 21.92 147.14 20.55C151.93 18.98 154.83 24.89 155.55 28.6C156.62 34.13 155.83 40.15 154.58 45.57C149.99 65.45 138.62 84.67 126.96 101.2C114.99 118.17 100.39 133.03 84.59 146.44C68.79 159.85 53.54 173.89 42.94 192.06C37.76 200.93 33.85 210.71 31.63 220.74C29.71 229.42 29.18 240.73 38.56 245.37C57.76 254.86 70.73 223.49 75.68 210.59C83.39 190.5 86.8 169.36 90.19 148.24C91.84 137.94 94.1 127.89 94.37 117.43C94.5 112.38 97.77 102.75 92.28 99.56C85.22 95.47 82.4 105.77 80.26 110C75.8 118.82 70.42 127.45 64.13 135.1C60.31 139.75 46.48 154.43 42.52 142.32C39.31 132.5 42.12 120.49 43.57 110.58C46.84 88.34 52.29 67.5 62.52 47.37C67.54 37.51 73.5 28.36 79.74 19.24C82.41 15.34 85.05 12.95 89.5 11.17C93.95 9.39001 98.57 9.80001 99.04 15.41C99.8 24.53 95.34 35.59 91.73 43.76C87.58 53.17 82.1 62.05 75.8 70.18C62.82 86.92 47.07 101.18 29.42 112.84C24.98 115.77 20.8 119.1 16.14 121.69C11.48 124.28 6.96999 126.19 2.45999 128.58C-3.23001 131.6 1.81999 140.23 7.50999 137.21L7.53999 137.22Z" fill="#3B82F6"/>
<path d="M362.75 31.25C373.82 29.19 385.28 29.32 396.44 27.72C408.23 26.02 419.96 23.91 431.77 22.35C455.41 19.23 479.29 18.64 503.05 16.94C509.43 16.48 509.48 6.48001 503.05 6.94001C478.65 8.68001 454.16 9.35001 429.88 12.6C418.44 14.13 407.07 16.1 395.65 17.8C384.23 19.5 371.8 19.43 360.08 21.61C353.76 22.79 356.44 32.43 362.74 31.25H362.75Z" fill="#3B82F6"/>
<path d="M416.47 22.7C416.01 41 412.77 59.11 412.1 77.42C411.78 86.23 411.66 95.04 411.7 103.86C411.74 112.18 413.23 121.48 411.91 129.71L421.05 128.52L421.51 129.97C421.56 123.53 411.56 123.53 411.51 129.97C411.5 131.33 411.81 132.36 412.42 133.57C414.24 137.21 420.88 136.62 421.56 132.38C422.91 123.99 421.79 115.28 421.73 106.81C421.66 97.64 421.74 88.46 422.05 79.3C422.68 60.36 426.01 41.64 426.49 22.72C426.65 16.28 416.65 16.29 416.49 22.72L416.47 22.7Z" fill="#3B82F6"/>
<path d="M436.97 83.61C438.8 79.72 440.87 75.97 442.76 72.11C444.26 69.04 445.22 64.57 447.3 61.9L438.94 59.69C440.52 68.44 441.77 78.91 449.54 84.6C453.17 87.26 457.76 88.08 462.13 88.65C467.46 89.35 471.38 87.88 476.42 86.69C481.77 85.42 480.77 76.18 475.09 76.87C468.78 77.63 463.77 82.25 459.22 86.45C454.46 90.85 449.84 96.25 446.45 101.8C440.61 111.37 441.02 125.16 452.03 130.8C464.4 137.13 476.69 126.34 484.82 118.09C494.8 107.95 499.86 94.21 509.62 84.01L502.55 76.94C498.21 81.78 495.43 87.51 493.12 93.53C490.81 99.55 488.54 105.43 488.39 111.63C488.03 125.69 501.26 128.79 512.48 125.23C525.52 121.09 534.33 109.5 538.04 96.65C540.37 88.57 542.3 76.09 535.05 69.9C529.44 65.11 520.93 67.11 514.82 69.63C507.45 72.66 502.56 77.33 497.46 83.36C493.33 88.25 500.37 95.35 504.53 90.43C508.31 85.96 511.85 81.77 517.31 79.35C520.6 77.9 528.02 74.51 529.6 79.5C532.13 87.47 527.45 98.6 523.22 104.97C520.05 109.75 516 113.45 510.53 115.37C506.97 116.62 499.66 118.85 498.47 113.67C497.41 109.06 500.26 103.22 501.76 98.96C503.63 93.67 505.84 88.25 509.62 84.02C513.89 79.26 507.03 72.27 502.55 76.95C496 83.8 491.64 92.12 486.47 99.99C481.3 107.86 474.57 116.54 466.25 120.64C461.96 122.75 456.25 124.05 453.5 118.92C451.55 115.3 452.79 110.83 454.71 107.5C456.99 103.56 460.09 99.91 463.2 96.59C464.79 94.89 466.48 93.28 468.25 91.78C469.75 90.51 473.06 87.11 475.09 86.87L473.76 77.05C470.05 77.93 467.27 79.31 463.32 78.81C460.42 78.44 456.79 77.96 454.63 75.88C449.97 71.39 449.66 62.94 448.59 57.04C447.96 53.56 442.48 51.95 440.23 54.83C437.75 58 436.57 61.89 434.87 65.52C432.8 69.93 430.4 74.16 428.33 78.57C425.6 84.36 434.22 89.44 436.96 83.62L436.97 83.61Z" fill="#3B82F6"/>
<path d="M544.02 83.16C543.09 95.13 541.92 107.22 541.52 119.22H551.52C551.65 112.28 553.75 103.76 556.65 97.44C559.55 91.12 564.4 86.09 570.88 83.55C573.31 82.6 576.67 81.6 577.62 84.71C578.3 86.93 577.55 89.97 577.46 92.26C577.31 96.47 577.32 100.69 577.27 104.9C577.23 108.5 576.76 112.4 577.55 115.94C578.83 121.74 584.52 126.78 590.6 126.12C594.71 125.67 598.7 123.12 601.54 120.21C607.53 114.06 609.92 105.43 613.03 97.67C614.47 94.08 616.14 89.96 619.09 87.32C623.26 83.6 628.68 84.82 633.7 85.91L636.36 76.27C630.14 75.32 623.73 74.44 617.76 77.03C612.13 79.48 608.38 84.42 606.21 90.05C602.16 100.58 601.86 115.84 613.34 121.98C624.15 127.76 639.14 118.37 646.78 111.01C656.26 101.88 660.54 88.89 667.9 78.23L659.27 73.18C654.63 81.86 649.2 92.47 650.42 102.6C651.45 111.11 655.89 120.26 665.87 119.82C683.17 119.06 698.74 97.6 700.69 81.74C701.85 72.34 694.67 66.13 685.7 65.56C676.15 64.95 667.43 70.17 661.95 77.72C656.47 85.27 653.7 96.51 654.57 106.11C655.38 115.05 662.57 121.12 671.58 118.14C675.6 116.81 680.52 114.39 683.65 111.54C687.45 108.07 690.29 102.89 693.03 98.57C699.17 88.89 704.02 78.53 707.76 67.7L698.12 65.04C691.89 84.48 686.45 103.82 681.88 123.72C677.59 142.43 671.62 161.55 671.56 180.88C671.54 187.32 681.54 187.32 681.56 180.88C681.61 161.87 687.74 142.89 691.95 124.48C696.36 105.21 701.72 86.52 707.75 67.7C709.73 61.53 700.19 59.01 698.11 65.04C695.34 73.04 691.92 80.71 687.7 88.04C684.5 93.6 680.56 102.19 674.86 105.49C673.23 106.43 668.02 109.75 666.08 108.84C663.24 107.51 664.51 100.18 664.82 97.78C665.84 89.94 669.29 81.54 676.56 77.56C679.84 75.76 685.35 74.2 688.85 76.43C692.35 78.66 690.35 83.1 689.12 86.31C686.6 92.91 682.61 99.11 677.22 103.73C674.54 106.02 671.09 108.38 667.65 109.35C662.81 110.72 661.34 107.3 660.58 103.3C658.95 94.77 664.02 85.47 667.9 78.2C670.97 72.46 662.9 67.9 659.27 73.15C649.35 87.51 644.61 105.07 626.98 112.09C622.38 113.92 617.7 114.68 615.01 109.71C613.13 106.24 613.34 102.83 614.08 99.05C614.91 94.79 616.21 89.78 619.96 87.1C623.71 84.42 629.24 85.2 633.68 85.87C639.88 86.82 642.75 77.63 636.34 76.23C625.26 73.81 615.39 74.44 608.55 84.41C603.47 91.81 601.93 100.98 597.55 108.74C596.23 111.07 592.39 117.14 588.92 115.96C585.81 114.9 587.23 106.16 587.26 103.89C587.32 99.43 587.31 94.95 587.52 90.49C587.79 84.69 587.8 78.45 582.44 74.79C576.82 70.94 569.86 72.8 564.22 75.58C556.77 79.25 551.03 85.61 547.64 93.13C544.15 100.89 541.64 110.65 541.49 119.19C541.37 125.64 551.27 125.61 551.49 119.19C551.89 107.19 553.06 95.1 553.99 83.13C554.49 76.71 544.49 76.75 543.99 83.13L544.02 83.16Z" fill="#3B82F6"/>
<path d="M713.32 68.77C711.09 73.93 710.1 79.11 709.41 84.67C708.64 90.94 707.5 97.37 707.93 103.7C708.59 113.54 712.91 123.96 724.52 122.98C734.32 122.15 742.96 111.28 747.37 103.37C752.86 93.53 756.31 81.09 753.62 69.92C752.29 64.42 743.74 65.62 743.8 71.25C743.91 82.4 742.11 93.26 741.23 104.33C740.91 108.36 740.38 112.78 742.65 116.35C745.1 120.2 749.41 120.66 753.59 120.47C760 120.18 760.03 110.17 753.59 110.47C749.76 110.65 750.84 109.61 751.12 105.98C751.4 102.35 751.87 98.47 752.32 94.71C753.24 86.91 753.89 79.11 753.81 71.25L743.99 72.58C747.2 85.89 738.28 105.78 726.01 112.16C717.24 116.72 717.67 102.01 718.04 97.09C718.6 89.6 718.96 80.79 721.98 73.82C724.51 67.97 715.9 62.88 713.35 68.77H713.32Z" fill="#3B82F6"/>
<path d="M776.91 66.3C764.7 75.01 760.11 95.09 764.51 109.18C766.61 115.92 772.12 121.4 779.5 121.72C786.88 122.04 794.35 117.59 799.54 112.85C810.41 102.93 814.18 86 807.06 72.93C803.61 66.59 798.13 63.53 790.94 63.86C787.52 64.01 783.4 64.33 780.19 65.52C776.78 66.78 775.25 69.5 772.89 72.02C768.5 76.72 775.55 83.8 779.96 79.09C781.14 77.83 782.16 75.84 783.65 75.02C785.37 74.07 788.19 74.06 790.11 73.92C794.76 73.58 797.1 74.85 798.98 79.12C802.81 87.79 800.04 98.14 793.49 104.79C790.56 107.77 785.7 111.12 781.48 111.67C776.14 112.36 774 107.62 773.4 103.18C772.2 94.31 774.11 80.52 781.93 74.95C787.12 71.24 782.14 62.57 776.88 66.32L776.91 66.3Z" fill="#3B82F6"/>
</g>
<defs>
<clipPath id="clip0_3_39">
<rect width="810.7" height="247.14" fill="white"/>
</clipPath>
</defs>
</svg>
